<svg xmlns="http://www.w3.org/2000/svg" xmlns:xlink="http://www.w3.org/1999/xlink" width="180" zoomAndPan="magnify" viewBox="0 0 135 75.749997" height="101" preserveAspectRatio="xMidYMid meet" version="1.0"><defs><g/><clipPath id="5b0c766843"><path d="M 17 35.640625 L 30 35.640625 L 30 45.359375 L 17 45.359375 Z M 17 35.640625 " clip-rule="nonzero"/></clipPath><clipPath id="3aca594267"><path d="M 29 36 L 34.753906 36 L 34.753906 41 L 29 41 Z M 29 36 " clip-rule="nonzero"/></clipPath></defs><g fill="#00aa6c" fill-opacity="1"><g transform="translate(7.901302, 45.265607)"><g><path d="M 9.796875 -9.578125 L 9.796875 -7.1875 L 6.203125 -7.1875 L 6.203125 0 L 3.8125 0 L 3.8125 -7.1875 L 0.21875 -7.1875 L 0.21875 -9.578125 Z M 9.796875 -9.578125 "/></g></g></g><g fill="#00aa6c" fill-opacity="1"><g transform="translate(17.927015, 45.265607)"><g/></g></g><g fill="#00aa6c" fill-opacity="1"><g transform="translate(23.432676, 45.265607)"><g/></g></g><g fill="#00aa6c" fill-opacity="1"><g transform="translate(28.938337, 45.265607)"><g/></g></g><g fill="#00aa6c" fill-opacity="1"><g transform="translate(34.445755, 45.265607)"><g><path d="M 6.546875 -9.59375 L 8.9375 -9.59375 L 8.9375 -3.890625 C 8.9375 -3.304688 8.828125 -2.757812 8.609375 -2.25 C 8.390625 -1.75 8.085938 -1.304688 7.703125 -0.921875 C 7.316406 -0.535156 6.875 -0.234375 6.375 -0.015625 C 5.875 0.203125 5.332031 0.3125 4.75 0.3125 C 4.164062 0.3125 3.617188 0.203125 3.109375 -0.015625 C 2.609375 -0.234375 2.164062 -0.535156 1.78125 -0.921875 C 1.394531 -1.304688 1.09375 -1.75 0.875 -2.25 C 0.65625 -2.757812 0.546875 -3.304688 0.546875 -3.890625 L 0.546875 -9.59375 L 2.9375 -9.59375 L 2.9375 -3.890625 C 2.9375 -3.554688 3.015625 -3.253906 3.171875 -2.984375 C 3.335938 -2.710938 3.554688 -2.492188 3.828125 -2.328125 C 4.109375 -2.160156 4.414062 -2.078125 4.75 -2.078125 C 5.082031 -2.078125 5.378906 -2.160156 5.640625 -2.328125 C 5.910156 -2.492188 6.128906 -2.710938 6.296875 -2.984375 C 6.460938 -3.265625 6.546875 -3.566406 6.546875 -3.890625 Z M 6.546875 -9.59375 "/></g></g></g><g fill="#00aa6c" fill-opacity="1"><g transform="translate(43.933415, 45.265607)"><g><path d="M 6.65625 -3.640625 L 9.890625 1.03125 L 7.9375 2.390625 L 3.765625 -3.59375 L 2.71875 -3.59375 L 2.71875 0 L 0.3125 0 L 0.3125 -9.578125 L 6.125 -9.578125 C 6.6875 -9.578125 7.191406 -9.441406 7.640625 -9.171875 C 8.085938 -8.898438 8.445312 -8.535156 8.71875 -8.078125 C 8.988281 -7.628906 9.125 -7.128906 9.125 -6.578125 C 9.125 -6.097656 9.015625 -5.648438 8.796875 -5.234375 C 8.585938 -4.816406 8.296875 -4.46875 7.921875 -4.1875 C 7.554688 -3.90625 7.132812 -3.722656 6.65625 -3.640625 Z M 6.125 -5.984375 C 6.289062 -5.984375 6.429688 -6.039062 6.546875 -6.15625 C 6.671875 -6.269531 6.734375 -6.410156 6.734375 -6.578125 C 6.734375 -6.742188 6.675781 -6.882812 6.5625 -7 C 6.445312 -7.113281 6.300781 -7.171875 6.125 -7.171875 L 2.71875 -7.171875 L 2.71875 -5.984375 Z M 6.125 -5.984375 "/></g></g></g><g fill="#00aa6c" fill-opacity="1"><g transform="translate(54.202111, 45.265607)"><g><path d="M 3.046875 -9.578125 L 3.046875 0 L 0.65625 0 L 0.65625 -9.578125 Z M 3.046875 -9.578125 "/></g></g></g><g fill="#00aa6c" fill-opacity="1"><g transform="translate(57.940838, 45.265607)"><g><path d="M 3.421875 -6.59375 C 3.421875 -6.425781 3.476562 -6.28125 3.59375 -6.15625 C 3.71875 -6.039062 3.863281 -5.984375 4.03125 -5.984375 L 6.421875 -5.984375 C 6.972656 -5.984375 7.472656 -5.847656 7.921875 -5.578125 C 8.367188 -5.304688 8.726562 -4.941406 9 -4.484375 C 9.28125 -4.035156 9.421875 -3.539062 9.421875 -3 C 9.421875 -2.445312 9.28125 -1.941406 9 -1.484375 C 8.726562 -1.035156 8.367188 -0.675781 7.921875 -0.40625 C 7.472656 -0.132812 6.972656 0 6.421875 0 L 1.609375 0 L 1.609375 -2.390625 L 6.421875 -2.390625 C 6.597656 -2.390625 6.738281 -2.445312 6.84375 -2.5625 C 6.957031 -2.6875 7.015625 -2.832031 7.015625 -3 C 7.015625 -3.15625 6.957031 -3.289062 6.84375 -3.40625 C 6.738281 -3.53125 6.597656 -3.59375 6.421875 -3.59375 L 4.03125 -3.59375 C 3.488281 -3.59375 2.988281 -3.726562 2.53125 -4 C 2.070312 -4.269531 1.707031 -4.628906 1.4375 -5.078125 C 1.164062 -5.535156 1.03125 -6.039062 1.03125 -6.59375 C 1.03125 -7.144531 1.164062 -7.644531 1.4375 -8.09375 C 1.707031 -8.550781 2.070312 -8.910156 2.53125 -9.171875 C 2.988281 -9.441406 3.488281 -9.578125 4.03125 -9.578125 L 8.84375 -9.578125 L 8.84375 -7.1875 L 4.03125 -7.1875 C 3.863281 -7.1875 3.71875 -7.128906 3.59375 -7.015625 C 3.476562 -6.898438 3.421875 -6.757812 3.421875 -6.59375 Z M 3.421875 -6.59375 "/></g></g></g><g fill="#00aa6c" fill-opacity="1"><g transform="translate(68.644865, 45.265607)"><g><path d="M 9.796875 -9.578125 L 9.796875 -7.1875 L 6.203125 -7.1875 L 6.203125 0 L 3.8125 0 L 3.8125 -7.1875 L 0.21875 -7.1875 L 0.21875 -9.578125 Z M 9.796875 -9.578125 "/></g></g></g><g clip-path="url(#5b0c766843)"><path fill="#00aa6c" d="M 29.71875 39.894531 C 29.785156 40.332031 29.800781 40.792969 29.746094 41.253906 C 29.429688 43.96875 26.972656 45.90625 24.261719 45.585938 C 22.070312 45.328125 20.386719 43.675781 19.984375 41.621094 C 19.988281 41.617188 25.453125 42.617188 29.71875 39.894531 M 18.324219 40.445312 C 16.8125 39.570312 18.09375 38.488281 19.542969 38.421875 C 19.167969 38.539062 17.507812 39.664062 19.878906 40.332031 C 19.886719 40.335938 19.902344 40.339844 19.914062 40.34375 C 19.917969 40.265625 19.925781 40.183594 19.933594 40.101562 C 20.25 37.390625 22.707031 35.453125 25.417969 35.769531 C 27.570312 36.023438 29.234375 37.625 29.667969 39.628906 C 28.6875 40.296875 26.671875 40.890625 24.574219 41.105469 C 22.105469 41.363281 19.519531 41.132812 18.324219 40.445312 Z M 18.324219 40.445312 " fill-opacity="1" fill-rule="evenodd"/></g><g clip-path="url(#3aca594267)"><path fill="#ff9202" d="M 31.035156 36.84375 C 31.539062 37.117188 32.351562 37.644531 32.679688 37.484375 C 32.925781 37.359375 33.179688 37.234375 33.429688 37.109375 C 34.234375 36.71875 34.53125 37.382812 33.84375 37.847656 L 33.214844 38.289062 C 32.917969 38.496094 32.957031 39.359375 32.976562 39.933594 C 32.988281 40.1875 32.890625 40.328125 32.765625 40.417969 C 32.699219 40.464844 32.667969 40.453125 32.648438 40.378906 C 32.515625 39.875 32.386719 39.371094 32.257812 38.867188 C 32.234375 38.765625 32.203125 38.722656 32.101562 38.773438 C 31.75 38.945312 31.398438 39.113281 31.042969 39.285156 C 31.015625 39.300781 31.003906 39.316406 31.007812 39.34375 C 31.054688 39.675781 31.007812 40.027344 30.785156 40.148438 C 30.734375 40.179688 30.703125 40.179688 30.691406 40.113281 C 30.660156 39.90625 30.652344 39.632812 30.621094 39.441406 C 30.46875 39.484375 30.386719 39.355469 30.476562 39.238281 L 29.917969 38.941406 C 29.789062 38.871094 29.863281 38.808594 29.964844 38.777344 C 30.175781 38.710938 30.480469 38.808594 30.722656 38.941406 C 30.761719 38.960938 30.78125 38.964844 30.816406 38.9375 L 31.789062 38.15625 C 31.871094 38.09375 31.847656 38.066406 31.78125 38.011719 L 30.484375 36.957031 C 30.414062 36.898438 30.433594 36.859375 30.515625 36.824219 C 30.679688 36.753906 30.824219 36.726562 31.035156 36.84375 " fill-opacity="1" fill-rule="evenodd"/></g><g fill="#00aa6c" fill-opacity="1"><g transform="translate(83.218773, 45.265607)"><g><path d="M 5.125 -3.578125 L 5.125 -4.78125 L 10.15625 -4.78125 L 10.15625 -2.671875 C 9.882812 -2.066406 9.507812 -1.535156 9.03125 -1.078125 C 8.550781 -0.628906 8.007812 -0.28125 7.40625 -0.03125 C 6.800781 0.207031 6.160156 0.328125 5.484375 0.328125 C 4.773438 0.328125 4.113281 0.195312 3.5 -0.0625 C 2.882812 -0.320312 2.34375 -0.6875 1.875 -1.15625 C 1.40625 -1.632812 1.035156 -2.179688 0.765625 -2.796875 C 0.503906 -3.410156 0.375 -4.070312 0.375 -4.78125 C 0.375 -5.488281 0.503906 -6.148438 0.765625 -6.765625 C 1.035156 -7.390625 1.40625 -7.9375 1.875 -8.40625 C 2.34375 -8.875 2.882812 -9.238281 3.5 -9.5 C 4.113281 -9.769531 4.773438 -9.90625 5.484375 -9.90625 C 6.171875 -9.90625 6.820312 -9.773438 7.4375 -9.515625 C 8.0625 -9.253906 8.613281 -8.890625 9.09375 -8.421875 C 9.570312 -7.960938 9.945312 -7.414062 10.21875 -6.78125 L 8.078125 -5.875 C 7.847656 -6.394531 7.5 -6.8125 7.03125 -7.125 C 6.5625 -7.4375 6.046875 -7.59375 5.484375 -7.59375 C 4.972656 -7.59375 4.503906 -7.460938 4.078125 -7.203125 C 3.648438 -6.953125 3.3125 -6.613281 3.0625 -6.1875 C 2.8125 -5.757812 2.6875 -5.289062 2.6875 -4.78125 C 2.6875 -4.269531 2.8125 -3.800781 3.0625 -3.375 C 3.3125 -2.945312 3.648438 -2.609375 4.078125 -2.359375 C 4.503906 -2.109375 4.972656 -1.984375 5.484375 -1.984375 C 6.023438 -1.984375 6.523438 -2.128906 6.984375 -2.421875 C 7.441406 -2.710938 7.785156 -3.097656 8.015625 -3.578125 Z M 5.125 -3.578125 "/></g></g></g><g fill="#00aa6c" fill-opacity="1"><g transform="translate(93.807565, 45.265607)"><g><path d="M 6.546875 -9.59375 L 8.9375 -9.59375 L 8.9375 -3.890625 C 8.9375 -3.304688 8.828125 -2.757812 8.609375 -2.25 C 8.390625 -1.75 8.085938 -1.304688 7.703125 -0.921875 C 7.316406 -0.535156 6.875 -0.234375 6.375 -0.015625 C 5.875 0.203125 5.332031 0.3125 4.75 0.3125 C 4.164062 0.3125 3.617188 0.203125 3.109375 -0.015625 C 2.609375 -0.234375 2.164062 -0.535156 1.78125 -0.921875 C 1.394531 -1.304688 1.09375 -1.75 0.875 -2.25 C 0.65625 -2.757812 0.546875 -3.304688 0.546875 -3.890625 L 0.546875 -9.59375 L 2.9375 -9.59375 L 2.9375 -3.890625 C 2.9375 -3.554688 3.015625 -3.253906 3.171875 -2.984375 C 3.335938 -2.710938 3.554688 -2.492188 3.828125 -2.328125 C 4.109375 -2.160156 4.414062 -2.078125 4.75 -2.078125 C 5.082031 -2.078125 5.378906 -2.160156 5.640625 -2.328125 C 5.910156 -2.492188 6.128906 -2.710938 6.296875 -2.984375 C 6.460938 -3.265625 6.546875 -3.566406 6.546875 -3.890625 Z M 6.546875 -9.59375 "/></g></g></g><g fill="#00aa6c" fill-opacity="1"><g transform="translate(103.295225, 45.265607)"><g><path d="M 3.046875 -9.578125 L 3.046875 0 L 0.65625 0 L 0.65625 -9.578125 Z M 3.046875 -9.578125 "/></g></g></g><g fill="#00aa6c" fill-opacity="1"><g transform="translate(107.033953, 45.265607)"><g><path d="M 5.4375 -9.578125 C 6.09375 -9.578125 6.710938 -9.453125 7.296875 -9.203125 C 7.878906 -8.960938 8.390625 -8.625 8.828125 -8.1875 C 9.265625 -7.75 9.601562 -7.238281 9.84375 -6.65625 C 10.09375 -6.070312 10.21875 -5.453125 10.21875 -4.796875 C 10.21875 -4.128906 10.09375 -3.503906 9.84375 -2.921875 C 9.601562 -2.347656 9.265625 -1.84375 8.828125 -1.40625 C 8.390625 -0.96875 7.878906 -0.625 7.296875 -0.375 C 6.722656 -0.125 6.101562 0 5.4375 0 L 0.65625 0 L 0.65625 -9.578125 Z M 5.4375 -2.390625 C 5.882812 -2.390625 6.285156 -2.5 6.640625 -2.71875 C 6.992188 -2.9375 7.28125 -3.226562 7.5 -3.59375 C 7.71875 -3.957031 7.828125 -4.359375 7.828125 -4.796875 C 7.828125 -5.242188 7.71875 -5.644531 7.5 -6 C 7.28125 -6.363281 6.992188 -6.648438 6.640625 -6.859375 C 6.285156 -7.078125 5.882812 -7.1875 5.4375 -7.1875 L 3.046875 -7.1875 L 3.046875 -2.390625 Z M 5.4375 -2.390625 "/></g></g></g><g fill="#00aa6c" fill-opacity="1"><g transform="translate(117.648353, 45.265607)"><g><path d="M 9.03125 -7.1875 L 3.046875 -7.1875 L 3.046875 -5.984375 L 9.03125 -5.984375 L 9.03125 -3.59375 L 3.046875 -3.59375 L 3.046875 -2.40625 L 9.03125 -2.40625 L 9.03125 0 L 0.65625 0 L 0.65625 -9.578125 L 9.03125 -9.578125 Z M 9.03125 -7.1875 "/></g></g></g></svg>