<?xml version="1.0" encoding="UTF-8"?>
<svg xmlns="http://www.w3.org/2000/svg" xmlns:xlink="http://www.w3.org/1999/xlink" width="200px" height="28px" viewBox="0 0 198 28" version="1.1">
<defs>
<clipPath id="clip1">
  <path d="M 42.707031 8.554688 L 49.519531 8.554688 L 49.519531 14.3125 L 42.707031 14.3125 Z M 42.707031 8.554688 "/>
</clipPath>
</defs>
<g id="surface1">
<path style=" stroke:none;fill-rule:nonzero;fill:rgb(0%,66.666669%,42.352942%);fill-opacity:1;" d="M 25.75 7.128906 L 25.75 10.679688 L 20.421875 10.679688 L 20.421875 21.351562 L 16.878906 21.351562 L 16.878906 10.679688 L 11.550781 10.679688 L 11.550781 7.128906 Z M 25.75 7.128906 "/>
<path style=" stroke:none;fill-rule:nonzero;fill:rgb(0%,66.666669%,42.352942%);fill-opacity:1;" d="M 59.253906 7.109375 L 62.796875 7.109375 L 62.796875 15.578125 C 62.796875 16.4375 62.636719 17.246094 62.3125 18 C 61.992188 18.75 61.546875 19.414062 60.976562 19.984375 C 60.410156 20.550781 59.75 21 59.007812 21.320312 C 58.261719 21.644531 57.457031 21.804688 56.597656 21.804688 C 55.738281 21.804688 54.933594 21.644531 54.183594 21.320312 C 53.429688 21 52.769531 20.550781 52.199219 19.984375 C 51.632812 19.414062 51.1875 18.75 50.867188 18 C 50.542969 17.246094 50.382812 16.4375 50.382812 15.578125 L 50.382812 7.109375 L 53.925781 7.109375 L 53.925781 15.578125 C 53.925781 16.070312 54.046875 16.523438 54.285156 16.925781 C 54.527344 17.332031 54.851562 17.65625 55.253906 17.894531 C 55.660156 18.136719 56.105469 18.253906 56.597656 18.253906 C 57.09375 18.253906 57.539062 18.136719 57.9375 17.894531 C 58.335938 17.65625 58.652344 17.328125 58.890625 16.917969 C 59.132812 16.503906 59.253906 16.058594 59.253906 15.578125 Z M 59.253906 7.109375 "/>
<path style=" stroke:none;fill-rule:nonzero;fill:rgb(0%,66.666669%,42.352942%);fill-opacity:1;" d="M 73.46875 15.957031 L 78.265625 22.886719 L 75.363281 24.902344 L 69.1875 16.015625 L 67.632812 16.015625 L 67.632812 21.351562 L 64.066406 21.351562 L 64.066406 7.128906 L 72.695312 7.128906 C 73.515625 7.128906 74.261719 7.332031 74.929688 7.734375 C 75.601562 8.140625 76.132812 8.679688 76.53125 9.351562 C 76.929688 10.019531 77.128906 10.769531 77.128906 11.589844 C 77.128906 12.300781 76.96875 12.964844 76.652344 13.585938 C 76.339844 14.207031 75.90625 14.722656 75.355469 15.140625 C 74.808594 15.558594 74.179688 15.828125 73.46875 15.957031 Z M 72.695312 12.464844 C 72.933594 12.464844 73.140625 12.378906 73.316406 12.207031 C 73.496094 12.039062 73.582031 11.832031 73.582031 11.589844 C 73.582031 11.335938 73.496094 11.125 73.328125 10.953125 C 73.15625 10.78125 72.945312 10.695312 72.695312 10.695312 L 67.632812 10.695312 L 67.632812 12.464844 Z M 72.695312 12.464844 "/>
<path style=" stroke:none;fill-rule:nonzero;fill:rgb(0%,66.666669%,42.352942%);fill-opacity:1;" d="M 83.328125 7.128906 L 83.328125 21.351562 L 79.78125 21.351562 L 79.78125 7.128906 Z M 83.328125 7.128906 "/>
<path style=" stroke:none;fill-rule:nonzero;fill:rgb(0%,66.666669%,42.352942%);fill-opacity:1;" d="M 89.433594 11.570312 C 89.433594 11.8125 89.519531 12.019531 89.695312 12.199219 C 89.871094 12.375 90.082031 12.464844 90.324219 12.464844 L 93.867188 12.464844 C 94.675781 12.464844 95.417969 12.667969 96.085938 13.070312 C 96.753906 13.476562 97.292969 14.015625 97.695312 14.683594 C 98.101562 15.355469 98.304688 16.097656 98.304688 16.90625 C 98.304688 17.71875 98.101562 18.457031 97.695312 19.128906 C 97.292969 19.800781 96.753906 20.335938 96.085938 20.742188 C 95.417969 21.148438 94.675781 21.351562 93.867188 21.351562 L 86.738281 21.351562 L 86.738281 17.796875 L 93.867188 17.796875 C 94.121094 17.796875 94.328125 17.710938 94.492188 17.535156 C 94.65625 17.355469 94.738281 17.148438 94.738281 16.90625 C 94.738281 16.667969 94.65625 16.457031 94.492188 16.28125 C 94.328125 16.105469 94.121094 16.015625 93.867188 16.015625 L 90.324219 16.015625 C 89.511719 16.015625 88.769531 15.816406 88.09375 15.417969 C 87.417969 15.019531 86.878906 14.480469 86.472656 13.804688 C 86.070312 13.125 85.867188 12.382812 85.867188 11.570312 C 85.867188 10.75 86.070312 10 86.472656 9.332031 C 86.878906 8.660156 87.417969 8.125 88.09375 7.726562 C 88.769531 7.328125 89.511719 7.128906 90.324219 7.128906 L 97.449219 7.128906 L 97.449219 10.679688 L 90.324219 10.679688 C 90.082031 10.679688 89.871094 10.765625 89.695312 10.9375 C 89.519531 11.109375 89.433594 11.320312 89.433594 11.570312 Z M 89.433594 11.570312 "/>
<path style=" stroke:none;fill-rule:nonzero;fill:rgb(0%,66.666669%,42.352942%);fill-opacity:1;" d="M 114.71875 7.128906 L 114.71875 10.679688 L 109.390625 10.679688 L 109.390625 21.351562 L 105.847656 21.351562 L 105.847656 10.679688 L 100.519531 10.679688 L 100.519531 7.128906 Z M 114.71875 7.128906 "/>
<path style=" stroke:none;fill-rule:evenodd;fill:rgb(0%,66.666669%,42.352942%);fill-opacity:1;" d="M 42.609375 13.378906 C 42.714844 14.042969 42.734375 14.734375 42.652344 15.433594 C 42.175781 19.519531 38.476562 22.441406 34.394531 21.964844 C 31.101562 21.574219 28.5625 19.082031 27.960938 15.984375 C 27.964844 15.980469 36.191406 17.484375 42.609375 13.378906 M 25.457031 14.210938 C 23.1875 12.890625 25.109375 11.261719 27.292969 11.15625 C 26.734375 11.339844 24.230469 13.03125 27.796875 14.042969 C 27.8125 14.046875 27.835938 14.054688 27.851562 14.058594 C 27.859375 13.9375 27.871094 13.816406 27.882812 13.691406 C 28.359375 9.605469 32.058594 6.683594 36.136719 7.164062 C 39.375 7.542969 41.882812 9.960938 42.539062 12.980469 C 41.0625 13.984375 38.023438 14.882812 34.867188 15.207031 C 31.152344 15.59375 27.257812 15.25 25.457031 14.210938 Z M 25.457031 14.210938 "/>
<g clip-path="url(#clip1)" clip-rule="nonzero">
<path style=" stroke:none;fill-rule:evenodd;fill:rgb(100%,57.254905%,0.784314%);fill-opacity:1;" d="M 44.589844 8.78125 C 45.351562 9.195312 46.578125 9.984375 47.066406 9.746094 C 47.441406 9.558594 47.820312 9.371094 48.199219 9.183594 C 49.410156 8.589844 49.859375 9.59375 48.824219 10.292969 L 47.871094 10.960938 C 47.425781 11.273438 47.488281 12.574219 47.519531 13.4375 C 47.535156 13.824219 47.386719 14.035156 47.195312 14.171875 C 47.097656 14.238281 47.050781 14.226562 47.019531 14.109375 C 46.820312 13.351562 46.628906 12.589844 46.433594 11.828125 C 46.394531 11.679688 46.347656 11.617188 46.199219 11.6875 C 45.667969 11.949219 45.136719 12.203125 44.605469 12.464844 C 44.566406 12.484375 44.542969 12.503906 44.554688 12.550781 C 44.621094 13.050781 44.554688 13.578125 44.21875 13.765625 C 44.140625 13.808594 44.09375 13.8125 44.078125 13.707031 C 44.03125 13.398438 44.019531 12.984375 43.96875 12.699219 C 43.738281 12.761719 43.621094 12.570312 43.753906 12.390625 L 42.914062 11.945312 C 42.71875 11.839844 42.828125 11.738281 42.980469 11.695312 C 43.300781 11.59375 43.757812 11.746094 44.125 11.945312 C 44.179688 11.976562 44.210938 11.980469 44.265625 11.9375 L 45.730469 10.761719 C 45.847656 10.664062 45.820312 10.625 45.714844 10.542969 L 43.765625 8.949219 C 43.65625 8.859375 43.6875 8.804688 43.8125 8.75 C 44.0625 8.648438 44.273438 8.605469 44.589844 8.78125 "/>
</g>
<path style=" stroke:none;fill-rule:nonzero;fill:rgb(0%,66.666669%,42.352942%);fill-opacity:1;" d="M 129.390625 16.035156 L 129.390625 14.246094 L 136.859375 14.246094 L 136.859375 17.378906 C 136.453125 18.28125 135.898438 19.066406 135.1875 19.734375 C 134.480469 20.40625 133.679688 20.925781 132.78125 21.292969 C 131.882812 21.660156 130.9375 21.84375 129.9375 21.84375 C 128.890625 21.84375 127.90625 21.648438 126.988281 21.253906 C 126.074219 20.863281 125.269531 20.320312 124.574219 19.621094 C 123.878906 18.925781 123.335938 18.117188 122.945312 17.199219 C 122.554688 16.285156 122.359375 15.300781 122.359375 14.246094 C 122.359375 13.199219 122.554688 12.214844 122.945312 11.296875 C 123.335938 10.378906 123.878906 9.570312 124.574219 8.875 C 125.269531 8.179688 126.074219 7.636719 126.988281 7.242188 C 127.90625 6.851562 128.890625 6.65625 129.9375 6.65625 C 130.949219 6.65625 131.910156 6.847656 132.828125 7.234375 C 133.746094 7.617188 134.558594 8.15625 135.273438 8.847656 C 135.988281 9.539062 136.542969 10.351562 136.933594 11.289062 L 133.765625 12.632812 C 133.4375 11.863281 132.925781 11.246094 132.230469 10.785156 C 131.535156 10.320312 130.773438 10.089844 129.9375 10.089844 C 129.179688 10.089844 128.484375 10.277344 127.851562 10.652344 C 127.21875 11.023438 126.71875 11.527344 126.347656 12.160156 C 125.972656 12.792969 125.789062 13.488281 125.789062 14.246094 C 125.789062 15.007812 125.972656 15.703125 126.347656 16.339844 C 126.71875 16.96875 127.21875 17.472656 127.851562 17.847656 C 128.484375 18.21875 129.179688 18.40625 129.9375 18.40625 C 130.734375 18.40625 131.472656 18.1875 132.144531 17.753906 C 132.820312 17.316406 133.332031 16.742188 133.671875 16.035156 Z M 129.390625 16.035156 "/>
<path style=" stroke:none;fill-rule:nonzero;fill:rgb(0%,66.666669%,42.352942%);fill-opacity:1;" d="M 147.167969 7.109375 L 150.714844 7.109375 L 150.714844 15.578125 C 150.714844 16.4375 150.554688 17.246094 150.230469 18 C 149.90625 18.75 149.460938 19.414062 148.890625 19.984375 C 148.324219 20.550781 147.667969 21 146.921875 21.320312 C 146.175781 21.644531 145.375 21.804688 144.515625 21.804688 C 143.65625 21.804688 142.851562 21.644531 142.097656 21.320312 C 141.347656 21 140.683594 20.550781 140.117188 19.984375 C 139.546875 19.414062 139.101562 18.75 138.78125 18 C 138.460938 17.246094 138.296875 16.4375 138.296875 15.578125 L 138.296875 7.109375 L 141.84375 7.109375 L 141.84375 15.578125 C 141.84375 16.070312 141.964844 16.523438 142.203125 16.925781 C 142.445312 17.332031 142.765625 17.65625 143.171875 17.894531 C 143.574219 18.136719 144.023438 18.253906 144.515625 18.253906 C 145.007812 18.253906 145.453125 18.136719 145.851562 17.894531 C 146.25 17.65625 146.570312 17.328125 146.808594 16.917969 C 147.050781 16.503906 147.167969 16.058594 147.167969 15.578125 Z M 147.167969 7.109375 "/>
<path style=" stroke:none;fill-rule:nonzero;fill:rgb(0%,66.666669%,42.352942%);fill-opacity:1;" d="M 156.039062 7.128906 L 156.039062 21.351562 L 152.496094 21.351562 L 152.496094 7.128906 Z M 156.039062 7.128906 "/>
<path style=" stroke:none;fill-rule:nonzero;fill:rgb(0%,66.666669%,42.352942%);fill-opacity:1;" d="M 165.121094 7.128906 C 166.09375 7.128906 167.011719 7.3125 167.871094 7.679688 C 168.730469 8.046875 169.484375 8.554688 170.132812 9.210938 C 170.785156 9.859375 171.292969 10.617188 171.660156 11.476562 C 172.027344 12.335938 172.210938 13.253906 172.210938 14.230469 C 172.210938 15.21875 172.027344 16.140625 171.660156 17 C 171.292969 17.863281 170.785156 18.617188 170.132812 19.273438 C 169.484375 19.921875 168.730469 20.433594 167.878906 20.800781 C 167.023438 21.167969 166.105469 21.351562 165.121094 21.351562 L 158.03125 21.351562 L 158.03125 7.128906 Z M 165.121094 17.796875 C 165.777344 17.796875 166.371094 17.636719 166.902344 17.316406 C 167.433594 16.992188 167.859375 16.558594 168.183594 16.015625 C 168.503906 15.46875 168.664062 14.875 168.664062 14.230469 C 168.664062 13.570312 168.503906 12.976562 168.183594 12.445312 C 167.859375 11.914062 167.433594 11.484375 166.902344 11.164062 C 166.371094 10.839844 165.777344 10.679688 165.121094 10.679688 L 161.574219 10.679688 L 161.574219 17.796875 Z M 165.121094 17.796875 "/>
<path style=" stroke:none;fill-rule:nonzero;fill:rgb(0%,66.666669%,42.352942%);fill-opacity:1;" d="M 186.160156 10.679688 L 177.289062 10.679688 L 177.289062 12.464844 L 186.160156 12.464844 L 186.160156 16.015625 L 177.289062 16.015625 L 177.289062 17.78125 L 186.160156 17.78125 L 186.160156 21.351562 L 173.746094 21.351562 L 173.746094 7.128906 L 186.160156 7.128906 Z M 186.160156 10.679688 "/>
</g>
</svg>
