<?xml version="1.0" encoding="UTF-8"?>
<svg xmlns="http://www.w3.org/2000/svg" xmlns:xlink="http://www.w3.org/1999/xlink" width="400px" height="56px" viewBox="0 0 400 56" version="1.1">
<defs>
<clipPath id="clip1">
  <path d="M 87.414062 17.109375 L 101 17.109375 L 101 28.625 L 87.414062 28.625 Z M 87.414062 17.109375 "/>
</clipPath>
</defs>
<g id="surface1">
<path style=" stroke:none;fill-rule:nonzero;fill:rgb(0%,66.666669%,42.352942%);fill-opacity:1;" d="M 53.5 14.257812 L 53.5 21.359375 L 42.84375 21.359375 L 42.84375 42.703125 L 35.757812 42.703125 L 35.757812 21.359375 L 25.101562 21.359375 L 25.101562 14.257812 Z M 53.5 14.257812 "/>
<path style=" stroke:none;fill-rule:nonzero;fill:rgb(0%,66.666669%,42.352942%);fill-opacity:1;" d="M 120.507812 14.21875 L 127.59375 14.21875 L 127.59375 31.15625 C 127.59375 32.875 127.273438 34.492188 126.625 36 C 125.984375 37.5 125.09375 38.828125 123.953125 39.96875 C 122.820312 41.101562 121.5 42 120.015625 42.640625 C 118.523438 43.289062 116.914062 43.609375 115.195312 43.609375 C 113.476562 43.609375 111.867188 43.289062 110.367188 42.640625 C 108.859375 42 107.539062 41.101562 106.398438 39.96875 C 105.265625 38.828125 104.375 37.5 103.734375 36 C 103.085938 34.492188 102.765625 32.875 102.765625 31.15625 L 102.765625 14.21875 L 109.851562 14.21875 L 109.851562 31.15625 C 109.851562 32.140625 110.09375 33.046875 110.570312 33.851562 C 111.054688 34.664062 111.703125 35.3125 112.507812 35.789062 C 113.320312 36.273438 114.210938 36.507812 115.195312 36.507812 C 116.1875 36.507812 117.078125 36.273438 117.875 35.789062 C 118.671875 35.3125 119.304688 34.65625 119.78125 33.835938 C 120.265625 33.007812 120.507812 32.117188 120.507812 31.15625 Z M 120.507812 14.21875 "/>
<path style=" stroke:none;fill-rule:nonzero;fill:rgb(0%,66.666669%,42.352942%);fill-opacity:1;" d="M 148.9375 31.914062 L 158.53125 45.773438 L 152.726562 49.804688 L 140.375 32.03125 L 137.265625 32.03125 L 137.265625 42.703125 L 130.132812 42.703125 L 130.132812 14.257812 L 147.390625 14.257812 C 149.03125 14.257812 150.523438 14.664062 151.859375 15.46875 C 153.203125 16.28125 154.265625 17.359375 155.0625 18.703125 C 155.859375 20.039062 156.257812 21.539062 156.257812 23.179688 C 156.257812 24.601562 155.9375 25.929688 155.304688 27.171875 C 154.679688 28.414062 153.8125 29.445312 152.710938 30.28125 C 151.617188 31.117188 150.359375 31.65625 148.9375 31.914062 Z M 147.390625 24.929688 C 147.867188 24.929688 148.28125 24.757812 148.632812 24.414062 C 148.992188 24.078125 149.164062 23.664062 149.164062 23.179688 C 149.164062 22.671875 148.992188 22.25 148.65625 21.90625 C 148.3125 21.5625 147.890625 21.390625 147.390625 21.390625 L 137.265625 21.390625 L 137.265625 24.929688 Z M 147.390625 24.929688 "/>
<path style=" stroke:none;fill-rule:nonzero;fill:rgb(0%,66.666669%,42.352942%);fill-opacity:1;" d="M 168.65625 14.257812 L 168.65625 42.703125 L 161.5625 42.703125 L 161.5625 14.257812 Z M 168.65625 14.257812 "/>
<path style=" stroke:none;fill-rule:nonzero;fill:rgb(0%,66.666669%,42.352942%);fill-opacity:1;" d="M 180.867188 23.140625 C 180.867188 23.625 181.039062 24.039062 181.390625 24.398438 C 181.742188 24.75 182.164062 24.929688 182.648438 24.929688 L 189.734375 24.929688 C 191.351562 24.929688 192.835938 25.335938 194.171875 26.140625 C 195.507812 26.953125 196.585938 28.03125 197.390625 29.367188 C 198.203125 30.710938 198.609375 32.195312 198.609375 33.8125 C 198.609375 35.4375 198.203125 36.914062 197.390625 38.257812 C 196.585938 39.601562 195.507812 40.671875 194.171875 41.484375 C 192.835938 42.296875 191.351562 42.703125 189.734375 42.703125 L 175.476562 42.703125 L 175.476562 35.59375 L 189.734375 35.59375 C 190.242188 35.59375 190.65625 35.421875 190.984375 35.070312 C 191.3125 34.710938 191.476562 34.296875 191.476562 33.8125 C 191.476562 33.335938 191.3125 32.914062 190.984375 32.5625 C 190.65625 32.210938 190.242188 32.03125 189.734375 32.03125 L 182.648438 32.03125 C 181.023438 32.03125 179.539062 31.632812 178.1875 30.835938 C 176.835938 30.039062 175.757812 28.960938 174.945312 27.609375 C 174.140625 26.25 173.734375 24.765625 173.734375 23.140625 C 173.734375 21.5 174.140625 20 174.945312 18.664062 C 175.757812 17.320312 176.835938 16.25 178.1875 15.453125 C 179.539062 14.65625 181.023438 14.257812 182.648438 14.257812 L 196.898438 14.257812 L 196.898438 21.359375 L 182.648438 21.359375 C 182.164062 21.359375 181.742188 21.53125 181.390625 21.875 C 181.039062 22.21875 180.867188 22.640625 180.867188 23.140625 Z M 180.867188 23.140625 "/>
<path style=" stroke:none;fill-rule:nonzero;fill:rgb(0%,66.666669%,42.352942%);fill-opacity:1;" d="M 231.4375 14.257812 L 231.4375 21.359375 L 220.78125 21.359375 L 220.78125 42.703125 L 213.695312 42.703125 L 213.695312 21.359375 L 203.039062 21.359375 L 203.039062 14.257812 Z M 231.4375 14.257812 "/>
<path style=" stroke:none;fill-rule:evenodd;fill:rgb(0%,66.666669%,42.352942%);fill-opacity:1;" d="M 87.21875 26.757812 C 87.429688 28.085938 87.46875 29.46875 87.304688 30.867188 C 86.351562 39.039062 78.953125 44.882812 70.789062 43.929688 C 64.203125 43.148438 59.125 38.164062 57.921875 31.96875 C 57.929688 31.960938 74.382812 34.96875 87.21875 26.757812 M 52.914062 28.421875 C 48.375 25.78125 52.21875 22.523438 56.585938 22.3125 C 55.46875 22.679688 50.460938 26.0625 57.59375 28.085938 C 57.625 28.09375 57.671875 28.109375 57.703125 28.117188 C 57.71875 27.875 57.742188 27.632812 57.765625 27.382812 C 58.71875 19.210938 66.117188 13.367188 74.273438 14.328125 C 80.75 15.085938 85.765625 19.921875 87.078125 25.960938 C 84.125 27.96875 78.046875 29.765625 71.734375 30.414062 C 64.304688 31.1875 56.515625 30.5 52.914062 28.421875 Z M 52.914062 28.421875 "/>
<g clip-path="url(#clip1)" clip-rule="nonzero">
<path style=" stroke:none;fill-rule:evenodd;fill:rgb(100%,57.254905%,0.784314%);fill-opacity:1;" d="M 91.179688 17.5625 C 92.703125 18.390625 95.15625 19.96875 96.132812 19.492188 C 96.882812 19.117188 97.640625 18.742188 98.398438 18.367188 C 100.820312 17.179688 101.71875 19.1875 99.648438 20.585938 L 97.742188 21.921875 C 96.851562 22.546875 96.976562 25.148438 97.039062 26.875 C 97.070312 27.648438 96.773438 28.070312 96.390625 28.34375 C 96.195312 28.476562 96.101562 28.453125 96.039062 28.21875 C 95.640625 26.703125 95.257812 25.179688 94.867188 23.65625 C 94.789062 23.359375 94.695312 23.234375 94.398438 23.375 C 93.335938 23.898438 92.273438 24.40625 91.210938 24.929688 C 91.132812 24.96875 91.085938 25.007812 91.109375 25.101562 C 91.242188 26.101562 91.109375 27.15625 90.4375 27.53125 C 90.28125 27.617188 90.1875 27.625 90.15625 27.414062 C 90.0625 26.796875 90.039062 25.96875 89.9375 25.398438 C 89.476562 25.523438 89.242188 25.140625 89.507812 24.78125 L 87.828125 23.890625 C 87.4375 23.679688 87.65625 23.476562 87.960938 23.390625 C 88.601562 23.1875 89.515625 23.492188 90.25 23.890625 C 90.359375 23.953125 90.421875 23.960938 90.53125 23.875 L 93.460938 21.523438 C 93.695312 21.328125 93.640625 21.25 93.429688 21.085938 L 89.53125 17.898438 C 89.3125 17.71875 89.375 17.609375 89.625 17.5 C 90.125 17.296875 90.546875 17.210938 91.179688 17.5625 "/>
</g>
<path style=" stroke:none;fill-rule:nonzero;fill:rgb(0%,66.666669%,42.352942%);fill-opacity:1;" d="M 260.78125 32.070312 L 260.78125 28.492188 L 275.71875 28.492188 L 275.71875 34.757812 C 274.90625 36.5625 273.796875 38.132812 272.375 39.46875 C 270.960938 40.8125 269.359375 41.851562 267.5625 42.585938 C 265.765625 43.320312 263.875 43.6875 261.875 43.6875 C 259.78125 43.6875 257.8125 43.296875 255.976562 42.507812 C 254.148438 41.726562 252.539062 40.640625 251.148438 39.242188 C 249.757812 37.851562 248.671875 36.234375 247.890625 34.398438 C 247.109375 32.570312 246.71875 30.601562 246.71875 28.492188 C 246.71875 26.398438 247.109375 24.429688 247.890625 22.59375 C 248.671875 20.757812 249.757812 19.140625 251.148438 17.75 C 252.539062 16.359375 254.148438 15.273438 255.976562 14.484375 C 257.8125 13.703125 259.78125 13.3125 261.875 13.3125 C 263.898438 13.3125 265.820312 13.695312 267.65625 14.46875 C 269.492188 15.234375 271.117188 16.3125 272.546875 17.695312 C 273.976562 19.078125 275.085938 20.703125 275.867188 22.578125 L 269.53125 25.265625 C 268.875 23.726562 267.851562 22.492188 266.460938 21.570312 C 265.070312 20.640625 263.546875 20.179688 261.875 20.179688 C 260.359375 20.179688 258.96875 20.554688 257.703125 21.304688 C 256.4375 22.046875 255.4375 23.054688 254.695312 24.320312 C 253.945312 25.585938 253.578125 26.976562 253.578125 28.492188 C 253.578125 30.015625 253.945312 31.40625 254.695312 32.679688 C 255.4375 33.9375 256.4375 34.945312 257.703125 35.695312 C 258.96875 36.4375 260.359375 36.8125 261.875 36.8125 C 263.46875 36.8125 264.945312 36.375 266.289062 35.507812 C 267.640625 34.632812 268.664062 33.484375 269.34375 32.070312 Z M 260.78125 32.070312 "/>
<path style=" stroke:none;fill-rule:nonzero;fill:rgb(0%,66.666669%,42.352942%);fill-opacity:1;" d="M 296.335938 14.21875 L 303.429688 14.21875 L 303.429688 31.15625 C 303.429688 32.875 303.109375 34.492188 302.460938 36 C 301.8125 37.5 300.921875 38.828125 299.78125 39.96875 C 298.648438 41.101562 297.335938 42 295.84375 42.640625 C 294.351562 43.289062 292.75 43.609375 291.03125 43.609375 C 289.3125 43.609375 287.703125 43.289062 286.195312 42.640625 C 284.695312 42 283.367188 41.101562 282.234375 39.96875 C 281.09375 38.828125 280.203125 37.5 279.5625 36 C 278.921875 34.492188 278.59375 32.875 278.59375 31.15625 L 278.59375 14.21875 L 285.6875 14.21875 L 285.6875 31.15625 C 285.6875 32.140625 285.929688 33.046875 286.40625 33.851562 C 286.890625 34.664062 287.53125 35.3125 288.34375 35.789062 C 289.148438 36.273438 290.046875 36.507812 291.03125 36.507812 C 292.015625 36.507812 292.90625 36.273438 293.703125 35.789062 C 294.5 35.3125 295.140625 34.65625 295.617188 33.835938 C 296.101562 33.007812 296.335938 32.117188 296.335938 31.15625 Z M 296.335938 14.21875 "/>
<path style=" stroke:none;fill-rule:nonzero;fill:rgb(0%,66.666669%,42.352942%);fill-opacity:1;" d="M 314.078125 14.257812 L 314.078125 42.703125 L 306.992188 42.703125 L 306.992188 14.257812 Z M 314.078125 14.257812 "/>
<path style=" stroke:none;fill-rule:nonzero;fill:rgb(0%,66.666669%,42.352942%);fill-opacity:1;" d="M 332.242188 14.257812 C 334.1875 14.257812 336.023438 14.625 337.742188 15.359375 C 339.460938 16.09375 340.96875 17.109375 342.265625 18.421875 C 343.570312 19.71875 344.585938 21.234375 345.320312 22.953125 C 346.054688 24.671875 346.421875 26.507812 346.421875 28.460938 C 346.421875 30.4375 346.054688 32.28125 345.320312 34 C 344.585938 35.726562 343.570312 37.234375 342.265625 38.546875 C 340.96875 39.84375 339.460938 40.867188 337.757812 41.601562 C 336.046875 42.335938 334.210938 42.703125 332.242188 42.703125 L 318.0625 42.703125 L 318.0625 14.257812 Z M 332.242188 35.59375 C 333.554688 35.59375 334.742188 35.273438 335.804688 34.632812 C 336.867188 33.984375 337.71875 33.117188 338.367188 32.03125 C 339.007812 30.9375 339.328125 29.75 339.328125 28.460938 C 339.328125 27.140625 339.007812 25.953125 338.367188 24.890625 C 337.71875 23.828125 336.867188 22.96875 335.804688 22.328125 C 334.742188 21.679688 333.554688 21.359375 332.242188 21.359375 L 325.148438 21.359375 L 325.148438 35.59375 Z M 332.242188 35.59375 "/>
<path style=" stroke:none;fill-rule:nonzero;fill:rgb(0%,66.666669%,42.352942%);fill-opacity:1;" d="M 374.320312 21.359375 L 356.578125 21.359375 L 356.578125 24.929688 L 374.320312 24.929688 L 374.320312 32.03125 L 356.578125 32.03125 L 356.578125 35.5625 L 374.320312 35.5625 L 374.320312 42.703125 L 349.492188 42.703125 L 349.492188 14.257812 L 374.320312 14.257812 Z M 374.320312 21.359375 "/>
</g>
</svg>
