<?xml version="1.0" encoding="UTF-8"?>
<svg xmlns="http://www.w3.org/2000/svg" xmlns:xlink="http://www.w3.org/1999/xlink" width="300px" height="42px" viewBox="0 0 300 42" version="1.1">
<defs>
<clipPath id="clip1">
  <path d="M 65.558594 12.832031 L 75.777344 12.832031 L 75.777344 21.46875 L 65.558594 21.46875 Z M 65.558594 12.832031 "/>
</clipPath>
</defs>
<g id="surface1">
<path style=" stroke:none;fill-rule:nonzero;fill:rgb(0%,66.666669%,42.352942%);fill-opacity:1;" d="M 40.125 10.691406 L 40.125 16.019531 L 32.132812 16.019531 L 32.132812 32.027344 L 26.816406 32.027344 L 26.816406 16.019531 L 18.824219 16.019531 L 18.824219 10.691406 Z M 40.125 10.691406 "/>
<path style=" stroke:none;fill-rule:nonzero;fill:rgb(0%,66.666669%,42.352942%);fill-opacity:1;" d="M 90.378906 10.664062 L 95.695312 10.664062 L 95.695312 23.367188 C 95.695312 24.65625 95.457031 25.871094 94.96875 27 C 94.488281 28.125 93.820312 29.121094 92.964844 29.976562 C 92.113281 30.824219 91.125 31.5 90.011719 31.980469 C 88.894531 32.464844 87.683594 32.707031 86.394531 32.707031 C 85.105469 32.707031 83.902344 32.464844 82.777344 31.980469 C 81.644531 31.5 80.652344 30.824219 79.800781 29.976562 C 78.949219 29.121094 78.28125 28.125 77.800781 27 C 77.316406 25.871094 77.074219 24.65625 77.074219 23.367188 L 77.074219 10.664062 L 82.386719 10.664062 L 82.386719 23.367188 C 82.386719 24.105469 82.570312 24.785156 82.925781 25.386719 C 83.292969 25.996094 83.777344 26.484375 84.378906 26.839844 C 84.988281 27.207031 85.660156 27.378906 86.394531 27.378906 C 87.140625 27.378906 87.808594 27.207031 88.40625 26.839844 C 89.003906 26.484375 89.480469 25.992188 89.835938 25.378906 C 90.199219 24.753906 90.378906 24.089844 90.378906 23.367188 Z M 90.378906 10.664062 "/>
<path style=" stroke:none;fill-rule:nonzero;fill:rgb(0%,66.666669%,42.352942%);fill-opacity:1;" d="M 111.703125 23.933594 L 118.898438 34.332031 L 114.542969 37.355469 L 105.28125 24.023438 L 102.949219 24.023438 L 102.949219 32.027344 L 97.597656 32.027344 L 97.597656 10.691406 L 110.542969 10.691406 C 111.773438 10.691406 112.894531 10.996094 113.894531 11.601562 C 114.902344 12.210938 115.699219 13.019531 116.296875 14.027344 C 116.894531 15.027344 117.191406 16.152344 117.191406 17.386719 C 117.191406 18.449219 116.953125 19.449219 116.480469 20.378906 C 116.011719 21.308594 115.359375 22.082031 114.535156 22.710938 C 113.714844 23.339844 112.769531 23.742188 111.703125 23.933594 Z M 110.542969 18.699219 C 110.902344 18.699219 111.210938 18.566406 111.472656 18.308594 C 111.746094 18.058594 111.871094 17.746094 111.871094 17.386719 C 111.871094 17.003906 111.746094 16.6875 111.492188 16.429688 C 111.234375 16.171875 110.917969 16.042969 110.542969 16.042969 L 102.949219 16.042969 L 102.949219 18.699219 Z M 110.542969 18.699219 "/>
<path style=" stroke:none;fill-rule:nonzero;fill:rgb(0%,66.666669%,42.352942%);fill-opacity:1;" d="M 126.492188 10.691406 L 126.492188 32.027344 L 121.171875 32.027344 L 121.171875 10.691406 Z M 126.492188 10.691406 "/>
<path style=" stroke:none;fill-rule:nonzero;fill:rgb(0%,66.666669%,42.352942%);fill-opacity:1;" d="M 135.652344 17.355469 C 135.652344 17.71875 135.777344 18.027344 136.042969 18.300781 C 136.308594 18.5625 136.621094 18.699219 136.988281 18.699219 L 142.300781 18.699219 C 143.511719 18.699219 144.628906 19.003906 145.628906 19.605469 C 146.628906 20.214844 147.441406 21.023438 148.042969 22.027344 C 148.652344 23.035156 148.957031 24.144531 148.957031 25.359375 C 148.957031 26.578125 148.652344 27.683594 148.042969 28.691406 C 147.441406 29.699219 146.628906 30.503906 145.628906 31.113281 C 144.628906 31.722656 143.511719 32.027344 142.300781 32.027344 L 131.605469 32.027344 L 131.605469 26.695312 L 142.300781 26.695312 C 142.683594 26.695312 142.992188 26.566406 143.238281 26.300781 C 143.484375 26.035156 143.605469 25.722656 143.605469 25.359375 C 143.605469 25.003906 143.484375 24.683594 143.238281 24.421875 C 142.992188 24.160156 142.683594 24.023438 142.300781 24.023438 L 136.988281 24.023438 C 135.769531 24.023438 134.652344 23.722656 133.640625 23.128906 C 132.628906 22.527344 131.816406 21.722656 131.207031 20.707031 C 130.605469 19.6875 130.300781 18.574219 130.300781 17.355469 C 130.300781 16.125 130.605469 15 131.207031 13.996094 C 131.816406 12.988281 132.628906 12.1875 133.640625 11.589844 C 134.652344 10.992188 135.769531 10.691406 136.988281 10.691406 L 147.675781 10.691406 L 147.675781 16.019531 L 136.988281 16.019531 C 136.621094 16.019531 136.308594 16.148438 136.042969 16.40625 C 135.777344 16.664062 135.652344 16.980469 135.652344 17.355469 Z M 135.652344 17.355469 "/>
<path style=" stroke:none;fill-rule:nonzero;fill:rgb(0%,66.666669%,42.352942%);fill-opacity:1;" d="M 173.578125 10.691406 L 173.578125 16.019531 L 165.585938 16.019531 L 165.585938 32.027344 L 160.269531 32.027344 L 160.269531 16.019531 L 152.277344 16.019531 L 152.277344 10.691406 Z M 173.578125 10.691406 "/>
<path style=" stroke:none;fill-rule:evenodd;fill:rgb(0%,66.666669%,42.352942%);fill-opacity:1;" d="M 65.414062 20.066406 C 65.574219 21.066406 65.601562 22.101562 65.480469 23.152344 C 64.761719 29.277344 59.214844 33.660156 53.089844 32.949219 C 48.152344 32.363281 44.34375 28.621094 43.441406 23.976562 C 43.449219 23.972656 55.785156 26.226562 65.414062 20.066406 M 39.683594 21.316406 C 36.28125 19.335938 39.164062 16.894531 42.441406 16.734375 C 41.601562 17.011719 37.847656 19.546875 43.195312 21.066406 C 43.21875 21.070312 43.253906 21.082031 43.277344 21.089844 C 43.289062 20.90625 43.308594 20.722656 43.324219 20.535156 C 44.039062 14.410156 49.589844 10.027344 55.707031 10.746094 C 60.5625 11.316406 64.324219 14.941406 65.308594 19.472656 C 63.09375 20.976562 58.535156 22.324219 53.800781 22.808594 C 48.230469 23.390625 42.386719 22.875 39.683594 21.316406 Z M 39.683594 21.316406 "/>
<g clip-path="url(#clip1)" clip-rule="nonzero">
<path style=" stroke:none;fill-rule:evenodd;fill:rgb(100%,57.254905%,0.784314%);fill-opacity:1;" d="M 68.386719 13.171875 C 69.527344 13.792969 71.367188 14.976562 72.097656 14.621094 C 72.660156 14.339844 73.230469 14.058594 73.800781 13.777344 C 75.613281 12.886719 76.289062 14.390625 74.738281 15.441406 L 73.308594 16.441406 C 72.636719 16.910156 72.730469 18.863281 72.777344 20.15625 C 72.800781 20.738281 72.582031 21.050781 72.292969 21.257812 C 72.144531 21.355469 72.074219 21.339844 72.027344 21.164062 C 71.730469 20.027344 71.441406 18.886719 71.152344 17.742188 C 71.089844 17.519531 71.019531 17.425781 70.800781 17.53125 C 70.003906 17.925781 69.207031 18.304688 68.410156 18.699219 C 68.347656 18.726562 68.316406 18.753906 68.332031 18.824219 C 68.433594 19.574219 68.332031 20.367188 67.828125 20.648438 C 67.710938 20.714844 67.640625 20.71875 67.617188 20.558594 C 67.546875 20.097656 67.527344 19.476562 67.453125 19.050781 C 67.105469 19.144531 66.933594 18.855469 67.128906 18.585938 L 65.871094 17.917969 C 65.578125 17.761719 65.742188 17.605469 65.972656 17.542969 C 66.449219 17.390625 67.136719 17.621094 67.6875 17.917969 C 67.769531 17.964844 67.816406 17.972656 67.898438 17.90625 L 70.097656 16.144531 C 70.269531 15.996094 70.230469 15.9375 70.074219 15.816406 L 67.148438 13.425781 C 66.984375 13.289062 67.03125 13.207031 67.21875 13.125 C 67.59375 12.972656 67.910156 12.910156 68.386719 13.171875 "/>
</g>
<path style=" stroke:none;fill-rule:nonzero;fill:rgb(0%,66.666669%,42.352942%);fill-opacity:1;" d="M 195.585938 24.050781 L 195.585938 21.371094 L 206.789062 21.371094 L 206.789062 26.066406 C 206.179688 27.421875 205.347656 28.597656 204.28125 29.601562 C 203.222656 30.609375 202.019531 31.386719 200.671875 31.941406 C 199.324219 32.488281 197.90625 32.765625 196.40625 32.765625 C 194.835938 32.765625 193.359375 32.472656 191.980469 31.878906 C 190.613281 31.292969 189.402344 30.480469 188.363281 29.433594 C 187.316406 28.386719 186.503906 27.175781 185.917969 25.800781 C 185.332031 24.425781 185.039062 22.949219 185.039062 21.371094 C 185.039062 19.800781 185.332031 18.324219 185.917969 16.945312 C 186.503906 15.566406 187.316406 14.355469 188.363281 13.3125 C 189.402344 12.269531 190.613281 11.457031 191.980469 10.863281 C 193.359375 10.277344 194.835938 9.984375 196.40625 9.984375 C 197.925781 9.984375 199.363281 10.269531 200.742188 10.851562 C 202.121094 11.425781 203.339844 12.234375 204.410156 13.269531 C 205.480469 14.308594 206.316406 15.527344 206.902344 16.933594 L 202.148438 18.949219 C 201.65625 17.792969 200.886719 16.871094 199.847656 16.175781 C 198.800781 15.480469 197.660156 15.136719 196.40625 15.136719 C 195.269531 15.136719 194.226562 15.417969 193.277344 15.980469 C 192.328125 16.535156 191.578125 17.292969 191.019531 18.238281 C 190.457031 19.191406 190.183594 20.230469 190.183594 21.371094 C 190.183594 22.511719 190.457031 23.554688 191.019531 24.511719 C 191.578125 25.453125 192.328125 26.207031 193.277344 26.769531 C 194.226562 27.328125 195.269531 27.609375 196.40625 27.609375 C 197.601562 27.609375 198.707031 27.28125 199.714844 26.628906 C 200.730469 25.972656 201.496094 25.113281 202.007812 24.050781 Z M 195.585938 24.050781 "/>
<path style=" stroke:none;fill-rule:nonzero;fill:rgb(0%,66.666669%,42.352942%);fill-opacity:1;" d="M 222.253906 10.664062 L 227.574219 10.664062 L 227.574219 23.367188 C 227.574219 24.65625 227.332031 25.871094 226.847656 27 C 226.359375 28.125 225.691406 29.121094 224.835938 29.976562 C 223.988281 30.824219 223.003906 31.5 221.882812 31.980469 C 220.761719 32.464844 219.5625 32.707031 218.273438 32.707031 C 216.984375 32.707031 215.777344 32.464844 214.644531 31.980469 C 213.519531 31.5 212.527344 30.824219 211.675781 29.976562 C 210.820312 29.121094 210.152344 28.125 209.671875 27 C 209.191406 25.871094 208.945312 24.65625 208.945312 23.367188 L 208.945312 10.664062 L 214.265625 10.664062 L 214.265625 23.367188 C 214.265625 24.105469 214.449219 24.785156 214.804688 25.386719 C 215.167969 25.996094 215.648438 26.484375 216.257812 26.839844 C 216.863281 27.207031 217.535156 27.378906 218.273438 27.378906 C 219.011719 27.378906 219.679688 27.207031 220.277344 26.839844 C 220.875 26.484375 221.355469 25.992188 221.714844 25.378906 C 222.074219 24.753906 222.253906 24.089844 222.253906 23.367188 Z M 222.253906 10.664062 "/>
<path style=" stroke:none;fill-rule:nonzero;fill:rgb(0%,66.666669%,42.352942%);fill-opacity:1;" d="M 235.558594 10.691406 L 235.558594 32.027344 L 230.246094 32.027344 L 230.246094 10.691406 Z M 235.558594 10.691406 "/>
<path style=" stroke:none;fill-rule:nonzero;fill:rgb(0%,66.666669%,42.352942%);fill-opacity:1;" d="M 249.183594 10.691406 C 250.640625 10.691406 252.019531 10.96875 253.308594 11.519531 C 254.597656 12.070312 255.726562 12.832031 256.699219 13.816406 C 257.675781 14.789062 258.441406 15.925781 258.988281 17.214844 C 259.542969 18.503906 259.816406 19.878906 259.816406 21.347656 C 259.816406 22.828125 259.542969 24.210938 258.988281 25.5 C 258.441406 26.792969 257.675781 27.925781 256.699219 28.910156 C 255.726562 29.882812 254.597656 30.652344 253.316406 31.199219 C 252.035156 31.753906 250.660156 32.027344 249.183594 32.027344 L 238.546875 32.027344 L 238.546875 10.691406 Z M 249.183594 26.695312 C 250.167969 26.695312 251.058594 26.457031 251.855469 25.972656 C 252.652344 25.488281 253.289062 24.839844 253.777344 24.023438 C 254.253906 23.203125 254.496094 22.3125 254.496094 21.347656 C 254.496094 20.355469 254.253906 19.464844 253.777344 18.667969 C 253.289062 17.871094 252.652344 17.226562 251.855469 16.746094 C 251.058594 16.261719 250.167969 16.019531 249.183594 16.019531 L 243.863281 16.019531 L 243.863281 26.695312 Z M 249.183594 26.695312 "/>
<path style=" stroke:none;fill-rule:nonzero;fill:rgb(0%,66.666669%,42.352942%);fill-opacity:1;" d="M 280.738281 16.019531 L 267.433594 16.019531 L 267.433594 18.699219 L 280.738281 18.699219 L 280.738281 24.023438 L 267.433594 24.023438 L 267.433594 26.671875 L 280.738281 26.671875 L 280.738281 32.027344 L 262.121094 32.027344 L 262.121094 10.691406 L 280.738281 10.691406 Z M 280.738281 16.019531 "/>
</g>
</svg>
